<svg width="145" height="42" viewBox="0 0 145 42" fill="none" xmlns="http://www.w3.org/2000/svg">
<path d="M124.443 23.249L122.561 20.882C121.843 19.8061 121.269 18.8019 120.839 17.8694C120.409 16.937 120.104 15.7893 119.925 14.4265C119.674 13.5658 119.512 12.7588 119.44 12.0057C119.369 11.2526 119.333 10.3918 119.333 9.42351C119.369 8.41932 119.405 7.18202 119.44 5.71161C119.476 4.34879 119.691 3.23701 120.086 2.37628C120.48 1.47969 120.749 0.887936 120.893 0.601028C121.646 -0.0445199 122.256 -0.170044 122.722 0.224457C123.224 0.618957 123.583 1.28244 123.798 2.21489C124.049 3.14735 124.156 4.13361 124.121 5.17365C124.228 9.01107 124.461 11.916 124.82 13.8885C125.214 15.861 125.699 17.0804 126.272 17.5466C126.703 17.6542 127.079 17.6184 127.402 17.4391C127.725 17.2239 128.137 16.8294 128.639 16.2555C129.177 15.6459 129.913 14.8569 130.845 13.8885C131.849 12.8485 132.853 11.7546 133.858 10.607C134.862 9.42351 135.812 8.2938 136.709 7.21789C137.641 6.14197 138.466 5.20952 139.183 4.42051C139.937 3.63151 140.528 3.11149 140.959 2.86044C141.102 2.64526 141.353 2.46594 141.712 2.32249C142.07 2.14317 142.411 2.01764 142.734 1.94592C143.093 1.83832 143.272 1.78453 143.272 1.78453C143.559 1.85626 143.72 2.08937 143.756 2.48387C143.792 2.84251 143.935 3.20115 144.186 3.55979C144.258 3.70324 144.419 3.91842 144.671 4.20533C144.922 4.49224 145.029 4.72536 144.993 4.90468C144.993 5.01227 144.832 5.26331 144.509 5.65781C144.186 6.01645 143.846 6.37509 143.487 6.73372C143.128 7.09236 142.859 7.36134 142.68 7.54066C142.214 7.93516 141.479 8.63451 140.474 9.63869C139.506 10.607 138.502 11.665 137.462 12.8126C136.422 13.9244 135.543 14.9286 134.826 15.8252C133.248 17.6542 131.831 19.2322 130.576 20.5592C129.357 21.8862 128.604 22.6752 128.317 22.9262C128.281 22.9979 128.048 23.0517 127.617 23.0876C127.187 23.0876 126.882 23.231 126.703 23.518L124.443 23.249ZM121.431 41.2705C121.287 41.2346 120.983 41.0733 120.516 40.7863C120.086 40.4994 119.691 40.2305 119.333 39.9794C119.082 39.6925 118.92 39.3877 118.849 39.0649C118.813 38.7421 118.867 38.3117 119.01 37.7738C119.153 37.2358 119.351 36.4827 119.602 35.5144C119.638 34.6895 119.799 33.6853 120.086 32.5018C120.409 31.3183 120.785 30.3321 121.216 29.5431C121.216 29.1486 121.305 28.6106 121.485 27.9292C121.664 27.2478 121.879 26.5484 122.13 25.8312C122.417 25.078 122.668 24.4325 122.883 23.8945L123.852 21.0972L126.003 19.2681L128.801 21.2047C128.657 21.4199 128.532 21.671 128.424 21.9579C128.317 22.2448 128.173 22.729 127.994 23.4104C127.815 24.0918 127.546 25.1498 127.187 26.5843C126.9 27.5526 126.577 28.5927 126.219 29.7045C125.896 30.8162 125.591 31.8563 125.304 32.8246C125.017 33.7929 124.766 34.5819 124.551 35.1916C124.121 36.8055 123.726 38.0786 123.367 39.0111C123.045 39.9436 122.722 40.5712 122.399 40.8939C122.112 41.2526 121.789 41.3781 121.431 41.2705Z" fill="black"/>
<path d="M86.5673 38.0693C86.3162 37.7466 86.0652 37.3341 85.8141 36.8321C85.5631 36.33 85.3837 35.8458 85.2762 35.3796C85.1686 34.9133 85.2044 34.5906 85.3837 34.4112C85.4913 34.1602 85.6527 33.9092 85.8679 33.6581C86.119 33.4071 86.2445 33.2815 86.2445 33.2815C86.3162 33.2815 86.5135 33.1201 86.8362 32.7974C87.159 32.4746 87.5356 32.0801 87.9659 31.6139C88.4322 31.1118 88.8984 30.5918 89.3646 30.0538C89.8667 29.48 90.315 28.96 90.7095 28.4937C91.0323 28.0992 91.4627 27.633 92.0006 27.095C92.5386 26.5212 93.0586 25.9474 93.5607 25.3736C95.3897 23.2576 97.1471 21.2851 98.8327 19.4561C100.554 17.627 102.311 15.8697 104.105 14.1841C105.898 12.4985 107.87 10.8308 110.022 9.18111C110.919 8.53556 111.618 7.94381 112.12 7.40585C112.658 6.83203 112.927 6.54512 112.927 6.54512C112.927 6.43753 112.622 6.38373 112.013 6.38373C111.439 6.38373 110.704 6.4196 109.807 6.49132C108.91 6.52719 107.978 6.58098 107.01 6.65271C106.077 6.72444 105.234 6.8141 104.481 6.92169C103.764 6.99342 103.262 7.06514 102.975 7.13687C102.724 7.13687 102.347 7.1548 101.845 7.19067C101.379 7.22653 101.074 7.24446 100.931 7.24446C99.0299 7.63897 97.6312 7.90794 96.7346 8.05139C95.838 8.19485 95.1925 8.19485 94.798 8.05139C94.4393 7.87208 94.0628 7.56723 93.6683 7.13687C93.489 6.84996 93.3993 6.38373 93.3993 5.73818C93.4352 5.09264 93.4531 4.64434 93.4531 4.3933C93.6324 4.2857 93.7938 4.16018 93.9373 4.01673C94.0807 3.83741 94.2242 3.74775 94.3676 3.74775C94.6545 3.74775 95.1746 3.67602 95.9277 3.53257C96.7167 3.38911 97.3443 3.24565 97.8105 3.1022C98.743 2.92288 99.801 2.81529 100.984 2.77943C102.168 2.7077 103.351 2.58218 104.535 2.40286C105.181 2.40286 105.772 2.40286 106.31 2.40286C106.848 2.36699 107.117 2.3132 107.117 2.24147C107.117 2.24147 107.601 2.24147 108.57 2.24147C109.538 2.24147 110.775 2.24147 112.282 2.24147C113.537 2.24147 114.559 2.3132 115.348 2.45665C116.173 2.56425 116.836 2.68977 117.338 2.83322C117.876 2.97668 118.307 3.12013 118.629 3.26359C119.239 3.69395 119.634 4.10638 119.813 4.50088C119.992 4.89539 120.082 5.41541 120.082 6.06096C119.974 6.74237 119.705 7.38792 119.275 7.9976C118.88 8.57142 118.54 8.85833 118.253 8.85833C118.217 8.85833 117.948 9.05558 117.446 9.45008C116.944 9.80872 116.352 10.257 115.671 10.795C114.989 11.2971 114.344 11.7992 113.734 12.3012C113.16 12.7675 112.748 13.1261 112.497 13.3772C112.282 13.4489 111.959 13.6282 111.528 13.9151C111.098 14.202 110.739 14.4889 110.453 14.7758C108.623 16.318 106.759 17.9319 104.858 19.6175C102.993 21.303 101.307 23.0245 99.801 24.7818C99.3347 25.2481 98.8506 25.7322 98.3485 26.2343C97.8823 26.7364 97.5416 27.0412 97.3264 27.1488C97.1471 27.5433 96.9677 27.8661 96.7884 28.1172C96.645 28.3682 96.5732 28.5296 96.5732 28.6013C96.5732 28.6013 96.5194 28.673 96.4119 28.8165C96.3401 28.96 96.2146 29.1393 96.0353 29.3545C95.9636 29.4262 95.7304 29.6414 95.3359 30C94.9414 30.3586 94.5649 30.7173 94.2062 31.0759C93.8476 31.4346 93.6683 31.7035 93.6683 31.8829C93.6683 31.9904 93.9193 31.9725 94.4214 31.8291C94.9594 31.6856 95.4256 31.5601 95.8201 31.4525C96.2146 31.4525 96.645 31.3808 97.1112 31.2373C97.5774 31.058 97.9719 30.9683 98.2947 30.9683C98.6892 30.9683 99.2451 30.9325 99.9624 30.8607C100.715 30.789 101.54 30.6993 102.437 30.5918C103.334 30.4842 104.212 30.3586 105.073 30.2152C105.97 30.0359 106.759 29.8565 107.44 29.6772C108.803 29.4979 109.753 29.6055 110.291 30C110.829 30.3945 111.152 30.8249 111.259 31.2911C111.403 31.5063 111.475 31.8829 111.475 32.4208C111.51 32.9588 111.528 33.2277 111.528 33.2277C111.457 33.2636 110.99 33.3712 110.13 33.5505C109.269 33.7298 108.193 33.945 106.902 34.1961C105.647 34.4112 104.374 34.6264 103.083 34.8416C101.791 35.0568 100.662 35.2361 99.6934 35.3796C98.7251 35.523 98.1333 35.5947 97.9181 35.5947C97.7747 35.5947 97.5954 35.6306 97.3802 35.7023C97.2009 35.7741 97.1112 35.8099 97.1112 35.8099C97.1112 35.8099 97.0215 35.8817 96.8422 36.0251C96.6629 36.1327 96.5374 36.1865 96.4656 36.1865C96.0711 36.1865 95.1925 36.4017 93.8297 36.8321C93.3276 36.9755 92.8255 37.0831 92.3234 37.1548C91.8572 37.2624 91.5344 37.3162 91.3551 37.3162C91.1399 37.3162 90.835 37.3879 90.4405 37.5314C90.0819 37.7107 89.6515 37.89 89.1494 38.0693C88.1811 38.3563 87.5894 38.4997 87.3742 38.4997C87.159 38.4997 86.89 38.3563 86.5673 38.0693Z" fill="black"/>
<path d="M77.8635 40.1853C77.0028 40.2929 76.3393 40.3467 75.8731 40.3467C75.4427 40.3467 75.0303 40.2929 74.6358 40.1853C74.2772 40.0777 73.793 39.9343 73.1833 39.755C72.6812 39.4322 72.1074 38.9839 71.4619 38.4101C70.8522 37.8362 70.4577 37.4776 70.2784 37.3341C70.2784 37.1548 70.2246 37.0114 70.117 36.9038C70.0452 36.7962 70.0094 36.7424 70.0094 36.7424C69.8659 36.7424 69.7404 36.4376 69.6328 35.8279C69.5611 35.1823 69.5252 34.4292 69.5252 33.5685C69.5611 32.7077 69.6149 31.9008 69.6866 31.1477C69.7942 30.3945 69.9197 29.8924 70.0632 29.6414C70.0632 29.4621 70.099 29.2469 70.1708 28.9958C70.2784 28.7089 70.3321 28.4758 70.3321 28.2965C70.3321 27.6868 70.4218 27.382 70.6011 27.382C70.6011 27.382 70.637 27.382 70.7087 27.382C70.8163 27.3461 70.8701 27.2744 70.8701 27.1668C70.8701 26.9516 70.9418 26.6647 71.0853 26.306C71.2287 25.9115 71.3363 25.5529 71.4081 25.2301C71.5874 24.9074 71.8026 24.3515 72.0536 23.5625C72.3405 22.7735 72.6095 22.0383 72.8605 21.3569C73.0399 20.5679 73.2909 19.7789 73.6137 18.9898C73.9365 18.2008 74.1696 17.5732 74.313 17.107C74.8151 16.2463 75.0662 15.6007 75.0662 15.1704C75.1379 14.9193 75.371 14.3993 75.7655 13.6103C76.1959 12.7854 76.698 11.8171 77.2718 10.7053C77.8456 9.59355 78.4373 8.46384 79.047 7.3162C79.6567 6.16856 80.1947 5.16438 80.6609 4.30365C81.1271 3.40705 81.4678 2.79737 81.683 2.4746C82.2927 1.54214 82.8845 0.896592 83.4583 0.537956C84.0321 0.179319 84.4804 0 84.8032 0C84.9825 0.0717265 85.2335 0.268977 85.5563 0.59175C85.9149 0.914524 86.2377 1.27316 86.5246 1.66766C86.8474 2.0263 87.0267 2.31321 87.0626 2.52839C87.0626 2.60012 86.9371 2.90496 86.686 3.44292C86.435 3.98087 86.1122 4.57263 85.7177 5.21817C85.3232 5.82786 84.9287 6.34788 84.5342 6.77825C84.4266 6.9217 84.3549 7.04722 84.319 7.15482C84.319 7.26241 84.319 7.3162 84.319 7.3162C84.319 7.3162 84.1935 7.53138 83.9424 7.96175C83.7273 8.35625 83.4583 8.85834 83.1355 9.46803C82.8127 10.0418 82.5258 10.5977 82.2748 11.1357C82.0237 11.6736 81.8803 12.0681 81.8444 12.3192C81.6292 12.5702 81.3244 13.0903 80.9299 13.8793C80.5712 14.6324 80.2126 15.4573 79.854 16.3539C79.4953 17.2146 79.1726 17.9677 78.8856 18.6133C78.5987 19.2588 78.4194 19.6175 78.3477 19.6892C78.3477 19.8685 78.3298 20.0478 78.2939 20.2271C78.2939 20.3706 78.2222 20.532 78.0787 20.7113C77.9711 20.9624 77.7739 21.5362 77.487 22.4328C77.2359 23.2935 76.8773 24.1901 76.4111 25.1225C76.16 26.1985 75.8552 27.1489 75.4965 27.9737C75.1379 28.7986 74.8689 29.3007 74.6896 29.48C74.5461 29.8386 74.4744 30.0538 74.4744 30.1255C74.4744 30.1614 74.5461 30.1614 74.6896 30.1255C74.8689 29.9462 74.9586 29.9283 74.9586 30.0717C74.9586 30.1793 74.8689 30.3766 74.6896 30.6635C74.5461 31.0221 74.4565 31.4166 74.4206 31.847C74.4206 32.2415 74.4206 32.6898 74.4206 33.1919C74.4565 33.9092 74.6358 34.4471 74.9586 34.8058C75.3172 35.1644 75.8731 35.3437 76.6262 35.3437C77.8456 35.3078 78.9036 35.2182 79.8002 35.0747C80.7326 34.9313 81.5216 34.7878 82.1672 34.6444C83.3507 34.2499 84.3728 34.1423 85.2335 34.3216C86.1301 34.465 86.7577 34.7699 87.1164 35.2361C87.3316 35.5589 87.4571 35.9534 87.4929 36.4196C87.5288 36.85 87.5467 37.1548 87.5467 37.3341C87.4391 37.4776 86.9909 37.6928 86.2019 37.9797C85.4487 38.3025 84.5342 38.6252 83.4583 38.948C82.3824 39.2708 81.3244 39.5398 80.2843 39.755C79.2802 40.006 78.4732 40.1495 77.8635 40.1853Z" fill="black"/>
<path d="M49.3823 39.57C49.2389 39.9287 48.7547 40.108 47.9299 40.108C47.105 40.108 46.3877 39.8749 45.778 39.4086C45.3477 38.9783 45.0608 38.6376 44.9173 38.3865C44.8097 38.1713 44.8815 37.7768 45.1325 37.203C45.3835 36.6651 45.8139 35.6967 46.4236 34.2981C46.567 33.4373 46.8181 32.5766 47.1767 31.7159C47.5354 30.8193 47.8043 30.1917 47.9837 29.833C48.1271 29.3309 48.414 28.5061 48.8444 27.3584C49.3106 26.1749 49.8306 24.8659 50.4045 23.4313C51.0141 21.9968 51.588 20.6519 52.1259 19.3967C52.6639 18.1056 53.0584 17.1373 53.3094 16.4917C53.9191 15.0572 54.5467 13.5509 55.1923 11.9729C55.8378 10.3949 56.7165 8.40444 57.8283 6.00157C57.9717 5.64294 57.9179 5.26637 57.6669 4.87186C57.4158 4.47736 56.9855 4.28011 56.3758 4.28011C56.0171 3.88561 55.8199 3.47318 55.784 3.04281C55.7482 2.57658 55.9275 2.25381 56.322 2.07449L61.2712 0.406828C62.9568 0.012328 64.6782 -0.0952629 66.4356 0.0840556C68.2287 0.227511 69.9143 0.711671 71.4923 1.53654C73.2138 2.54072 74.469 3.6525 75.258 4.87186C76.047 6.09123 76.4774 7.32853 76.5491 8.58376C76.6567 9.80313 76.5133 10.9149 76.1188 11.9191C75.8319 12.6722 75.276 13.4971 74.4511 14.3937C73.6621 15.2903 72.7296 16.1869 71.6537 17.0835C70.6137 17.9801 69.5198 18.8049 68.3722 19.5581C67.2604 20.2753 66.2204 20.8312 65.2521 21.2257C64.3555 21.6561 63.3513 22.1044 62.2395 22.5706C61.1277 23.001 60.0518 23.3776 59.0118 23.7003C58.4379 23.8438 57.7565 23.9155 56.9675 23.9155C56.1785 23.9155 55.5868 23.8438 55.1923 23.7003L54.2777 25.4218C53.9191 26.7129 53.2915 28.6316 52.3949 31.1779C51.5342 33.7242 50.53 36.5216 49.3823 39.57ZM70.7392 40.5921C70.4523 40.6997 69.9681 40.7356 69.2867 40.6997C68.6412 40.6639 67.906 40.377 67.0811 39.839C65.5031 38.9066 63.9251 37.7768 62.3471 36.4499C60.7691 35.1229 58.9938 33.3297 57.0213 31.0703C56.2682 30.1737 55.6944 29.2771 55.2999 28.3805C54.9412 27.484 54.475 26.3542 53.9012 24.9914L53.148 22.0865L55.1923 20.7416L57.5593 22.6782C58.1331 23.9334 58.7966 25.1349 59.5497 26.2825C60.3387 27.4302 61.1277 28.4523 61.9167 29.3489C62.5623 30.102 63.4409 31.0165 64.5527 32.0924C65.6645 33.1325 66.848 34.1367 68.1032 35.105C69.3585 36.0733 70.4882 36.8085 71.4923 37.3106C71.7075 37.4899 71.7613 37.8306 71.6537 38.3327C71.582 38.8707 71.4385 39.3728 71.2234 39.839C71.044 40.3052 70.8827 40.5563 70.7392 40.5921ZM57.1827 19.5043C58.0076 19.4325 58.9042 19.2174 59.8725 18.8587C60.8767 18.4642 61.9347 18.0339 63.0464 17.5676C64.0865 17.0655 65.1086 16.5276 66.1128 15.9538C67.1528 15.3441 68.0853 14.6806 68.9102 13.9633C69.7709 13.246 70.4344 12.475 70.9006 11.6501C71.4027 10.8252 71.6179 9.94658 71.5461 9.01413C71.5461 8.5479 71.4027 8.02787 71.1158 7.45405C70.8289 6.88023 70.4523 6.36021 69.9861 5.89398C69.5557 5.42775 69.1074 5.12291 68.6412 4.97946C67.2066 4.62082 66.1128 4.40563 65.3596 4.33391C64.6065 4.26218 64.0506 4.36977 63.692 4.65668C63.3692 4.94359 63.1182 5.44568 62.9388 6.16296C62.9388 6.27055 62.7954 6.61125 62.5085 7.18507C62.2216 7.75889 61.8629 8.4941 61.4326 9.39069C61.0381 10.2514 60.6436 11.1839 60.2491 12.1881C59.209 14.304 58.4379 15.8641 57.9358 16.8683C57.4696 17.8366 57.1827 18.4822 57.0751 18.8049C57.0034 19.1277 57.0393 19.3608 57.1827 19.5043Z" fill="black"/>
<path d="M33.1276 40.257C32.8407 39.8984 32.3924 39.6832 31.7827 39.6115C31.173 39.5398 30.2406 39.5577 28.9853 39.6653C28.4832 39.737 27.9632 39.7012 27.4253 39.5577C26.8873 39.4142 26.439 39.1991 26.0804 38.9122C25.7217 38.6252 25.5783 38.3204 25.65 37.9976C25.6859 37.5673 26.0983 37.101 26.8873 36.5989C27.7122 36.061 28.8957 35.7561 30.4378 35.6844L32.751 35.523L33.289 34.3933C33.3966 33.9988 33.54 33.4429 33.7194 32.7257C33.9345 32.0084 34.1497 31.2373 34.3649 30.4125C34.5084 29.9104 34.7056 29.1752 34.9567 28.2068C35.2436 27.2385 35.5484 26.2164 35.8712 25.1405C36.1939 24.0646 36.4809 23.0962 36.7319 22.2355C36.983 21.3748 37.1264 20.783 37.1623 20.4603C37.3057 20.1375 37.503 19.5457 37.754 18.685C38.0051 17.8243 38.2561 16.9456 38.5072 16.049C38.7582 15.1166 38.9196 14.471 38.9913 14.1124C39.8162 11.2433 40.3541 9.23491 40.6052 8.08727C40.8562 6.90377 40.91 6.31202 40.7666 6.31202C40.6231 6.31202 40.2824 6.32995 39.7445 6.36582C39.2065 6.40168 38.5968 6.47341 37.9154 6.581C37.2699 6.65273 36.696 6.74238 36.194 6.84997C35.6919 6.9217 35.4049 6.99343 35.3332 7.06516C35.1539 7.3162 34.8491 7.33414 34.4187 7.11895C33.9883 6.90377 33.7014 6.61686 33.558 6.25823C33.5221 5.93545 33.5042 5.54095 33.5042 5.07472C33.54 4.60849 33.6297 4.32158 33.7732 4.21399C34.0242 3.99881 34.5622 3.7657 35.387 3.51465C36.2477 3.2636 37.1981 3.03049 38.2382 2.81531C39.2782 2.56426 40.2107 2.36701 41.0356 2.22355C41.6452 2.15183 42.2549 2.00837 42.8646 1.79319C43.4743 1.54214 43.9405 1.27316 44.2633 0.986254C44.5861 0.842801 44.8909 0.73521 45.1778 0.663481C45.5006 0.591755 45.8234 0.573823 46.1461 0.609686C46.4331 0.753142 46.9172 0.824869 47.5986 0.824869C48.3159 0.789006 49.069 0.73521 49.858 0.663481C51.8664 0.412436 53.2292 0.376573 53.9465 0.555891C54.6638 0.699347 55.1479 1.18351 55.399 2.00837C55.5783 2.65392 55.6142 3.20981 55.5066 3.67603C55.4348 4.1064 55.0941 4.30365 54.4845 4.26779C54.1617 4.37538 53.5699 4.46504 52.7092 4.53677C51.8843 4.60849 51.0057 4.68022 50.0732 4.75195C48.8539 4.8954 47.9931 5.05679 47.491 5.23611C47.0248 5.37956 46.7558 5.52302 46.6841 5.66647C46.5406 5.80993 46.4151 5.95338 46.3075 6.09684C46.2358 6.24029 46.1282 6.40168 45.9848 6.581C46.0565 6.72445 46.0027 7.15482 45.8234 7.87209C45.644 8.58937 45.4289 9.36044 45.1778 10.1853C45.0344 10.6515 44.8192 11.3509 44.5323 12.2833C44.2454 13.1799 43.9405 14.1303 43.6177 15.1345C43.3308 16.1387 43.0619 17.0532 42.8108 17.8781C42.5598 18.6671 42.3804 19.1871 42.2729 19.4381C42.1653 19.7609 42.0577 20.1196 41.9501 20.5141C41.8784 20.8727 41.8425 21.1417 41.8425 21.321C41.2687 23.6521 40.7486 25.6246 40.2824 27.2385C39.8521 28.8165 39.4576 30.2331 39.0989 31.4884C38.7761 32.7077 38.4534 33.9809 38.1306 35.3078C38.1306 35.3078 38.561 35.2899 39.4217 35.2541C40.3183 35.1823 41.2328 35.0747 42.1653 34.9313C43.4205 34.752 44.335 34.6623 44.9088 34.6623C45.5185 34.6623 45.913 34.734 46.0923 34.8775C46.3075 34.9851 46.4151 35.1465 46.4151 35.3616C46.451 35.541 46.5227 35.7561 46.6303 36.0072C47.3834 36.9397 47.491 37.6211 46.9531 38.0514C46.451 38.4818 45.1957 38.7328 43.1874 38.8046C41.3225 38.948 39.852 39.0556 38.7761 39.1273C37.7361 39.2349 36.983 39.3425 36.5167 39.4501C36.0864 39.5577 35.8532 39.737 35.8174 39.9881C35.8174 40.1674 35.6739 40.3646 35.387 40.5798C35.1001 40.8309 34.7415 40.9564 34.3111 40.9564C33.9166 40.9564 33.5221 40.7233 33.1276 40.257Z" fill="black"/>
<path d="M1.07927 39.8805C0.433727 39.5219 0.0750897 39.1274 0.00336221 38.697C-0.0325015 38.2666 0.218545 37.5135 0.756501 36.4376C1.29446 35.3617 2.13725 33.694 3.28489 31.4346C4.14562 29.8207 4.71944 28.5655 5.00635 27.6689C5.32913 26.7364 5.50845 26.073 5.54431 25.6785C5.58017 25.284 5.59811 25.0329 5.59811 24.9253C5.52638 24.6025 5.56224 24.3515 5.7057 24.1722C5.84915 23.957 6.08227 23.7777 6.40504 23.6342C6.58436 23.4549 6.99679 23.1321 7.64234 22.6659C8.28788 22.1997 8.78998 21.6438 9.14861 20.9982C9.47139 20.2451 9.83003 19.474 10.2245 18.685C10.6549 17.896 11.2108 16.9098 11.8922 15.7263C12.5736 14.5069 13.4881 12.9289 14.6358 10.9923C15.353 9.73703 16.1958 8.32041 17.1642 6.74241C18.1683 5.1644 19.1546 3.72985 20.1229 2.43876C20.5174 1.93666 20.9299 1.54216 21.3602 1.25525C21.7906 0.968344 22.1672 0.82489 22.4899 0.82489C23.2789 0.82489 24.0679 1.04007 24.8569 1.47044C25.6459 1.86494 26.3453 2.36703 26.955 2.97671C27.5646 3.5864 27.9771 4.16022 28.1923 4.69817C28.3716 4.98508 28.4433 5.59477 28.4074 6.52722C28.3716 7.45968 28.2998 8.58939 28.1923 9.91635C28.0847 11.2433 27.9591 12.6599 27.8157 14.1662C27.7081 15.6366 27.5467 17.376 27.3315 19.3844C27.1163 21.3927 26.9012 23.4908 26.686 25.6785C26.5067 27.8661 26.3632 29.9821 26.2556 32.0263C26.148 34.0347 26.148 35.792 26.2556 37.2983C26.2915 37.6211 26.2915 37.9259 26.2556 38.2128C26.2198 38.4997 26.2018 38.7329 26.2018 38.9122C25.9866 39.1274 25.5204 39.217 24.8031 39.1812C24.0859 39.1812 23.3865 39.0736 22.7051 38.8584C22.0237 38.6432 21.6471 38.3742 21.5754 38.0514C21.4678 37.9439 21.3961 37.8542 21.3602 37.7825C21.3244 37.7107 21.3244 37.37 21.3602 36.7604C21.3961 36.1148 21.4499 34.9492 21.5216 33.2636L21.7906 25.0329L21.0912 25.0867C20.7685 25.0867 20.1767 25.1226 19.316 25.1943C18.4911 25.266 17.5766 25.3736 16.5724 25.5171C15.6041 25.6247 14.7075 25.7502 13.8826 25.8936C13.0578 26.0012 12.4839 26.1088 12.1612 26.2164C11.8384 26.2164 11.4439 26.4316 10.9777 26.862C10.5473 27.2923 10.1349 27.8482 9.74037 28.5296C9.59691 29.0317 9.32793 29.5697 8.93343 30.1435C8.5748 30.6814 8.39548 31.0401 8.39548 31.2194C8.14443 31.3987 7.92925 31.6139 7.74993 31.865C7.60647 32.116 7.53475 32.2415 7.53475 32.2415C7.53475 32.4567 7.37336 32.9947 7.05059 33.8554C6.72781 34.6803 6.33331 35.6127 5.86708 36.6528C5.40085 37.6569 4.91669 38.5356 4.4146 39.2887L2.96212 41.333L1.07927 39.8805ZM13.9364 21.3748C13.9364 21.3748 14.1337 21.3389 14.5282 21.2672C14.9227 21.1955 15.3889 21.1238 15.9269 21.052C16.5007 20.9444 17.0028 20.8906 17.4331 20.8906C18.258 20.6755 18.9394 20.5141 19.4774 20.4065C20.0512 20.2989 20.5174 20.2451 20.8761 20.2451C21.2347 20.2092 21.5216 20.2451 21.7368 20.3527C21.8802 20.532 22.0058 20.6396 22.1134 20.6755C22.2568 20.7113 22.3285 20.7293 22.3285 20.7293C22.3644 20.6575 22.4361 20.281 22.5437 19.5996C22.6513 18.9181 22.7768 18.0753 22.9203 17.0712C23.0637 16.067 23.2072 15.0269 23.3507 13.951C23.4941 12.8392 23.6196 11.8171 23.7272 10.8847C23.8348 9.91635 23.9065 9.16321 23.9424 8.62525C23.9783 7.94384 23.9603 7.33416 23.8886 6.7962C23.8169 6.22238 23.781 5.93547 23.781 5.93547C23.5658 5.93547 23.1534 6.32997 22.5437 7.11897C21.9699 7.87211 21.2885 8.89423 20.4995 10.1853C19.7463 11.4406 18.9932 12.8034 18.2401 14.2738C17.8814 14.9552 17.5407 15.4932 17.218 15.8877C16.931 16.2822 16.6979 16.4794 16.5186 16.4794C16.4469 16.5511 16.2496 16.838 15.9269 17.3401C15.64 17.8064 15.3172 18.3443 14.9585 18.954C14.6358 19.5278 14.3489 20.0658 14.0978 20.5679C13.8826 21.0341 13.8288 21.3031 13.9364 21.3748Z" fill="black"/>
</svg>
